<svg xmlns="http://www.w3.org/2000/svg" viewBox="0 0 64 64"> <defs> <linearGradient id="bg" x1="8" y1="6" x2="58" y2="60" gradientUnits="userSpaceOnUse"> <stop stop-color="#18181b"/> <stop offset="1" stop-color="#050505"/> </linearGradient>
<linearGradient id="accent" x1="18" y1="12" x2="48" y2="53" gradientUnits="userSpaceOnUse">
  <stop stop-color="#60a5fa"/>
  <stop offset="0.5" stop-color="#3b82f6"/>
  <stop offset="1" stop-color="#2563eb"/>
</linearGradient>

<linearGradient id="shine" x1="16" y1="8" x2="50" y2="58" gradientUnits="userSpaceOnUse">
  <stop stop-color="#ffffff" stop-opacity=".22"/>
  <stop offset=".5" stop-color="#ffffff" stop-opacity="0"/>
</linearGradient>
</defs> <!-- Premium dark base --> <rect x="3" y="3" width="58" height="58" rx="17" fill="url(#bg)"/> <!-- Subtle border -->

<rect x="3.75" y="3.75" width="56.5" height="56.5" rx="16.25" fill="none" stroke="#ffffff" stroke-opacity=".10" stroke-width="1.5"/>

<!-- Blue geometric B -->

<path d="M17 13h18.2c8.8 0 14.8 4.8 14.8 11.7 0 4.1-2 7.4-5.7 9.4 4.2 1.9 6.7 5.3 6.7 9.8C51 51.1 44.2 56 34.7 56H17V13Z" fill="url(#accent)" />

<!-- Inner B cutout -->

<path d="M28 21v10.2h6.4c3.7 0 6.2-2 6.2-5.1S38.1 21 34.4 21H28Z" fill="#09090b" />

<path d="M28 38.8V48h7c3.9 0 6.5-1.9 6.5-4.7 0-2.9-2.6-4.5-6.5-4.5H28Z" fill="#09090b" />

<!-- B vertical highlight -->

<path d="M17 13h6v43h-6V13Z" fill="#93c5fd" opacity=".72" />

<!-- Subtle shine -->

<path d="M17 13h18.2c8.8 0 14.8 4.8 14.8 11.7 0 4.1-2 7.4-5.7 9.4 4.2 1.9 6.7 5.3 6.7 9.8C51 51.1 44.2 56 34.7 56H17V13Z" fill="url(#shine)" />
</svg>